<?xml version="1.0" standalone="no"?>
<!DOCTYPE svg PUBLIC "-//W3C//DTD SVG 1.1//EN" "http://www.w3.org/Graphics/SVG/1.1/DTD/svg11.dtd" >
<svg xmlns="http://www.w3.org/2000/svg">
<metadata>
Created by FontForge 20120731 at Tue Mar  8 11:55:57 2016
 By Ads
</metadata>
<defs>
<font id="iconfont" horiz-adv-x="1024" >
  <font-face 
    font-family="iconfont"
    font-weight="500"
    font-stretch="normal"
    units-per-em="1024"
    panose-1="2 0 6 3 0 0 0 0 0 0"
    ascent="896"
    descent="-128"
    x-height="792"
    bbox="0 -212 1170 845"
    underline-thickness="50"
    underline-position="-100"
    unicode-range="U+0078-E621"
  />
<missing-glyph horiz-adv-x="374" 
d="M34 0v682h272v-682h-272zM68 34h204v614h-204v-614z" />
    <glyph glyph-name=".notdef" horiz-adv-x="374" 
d="M34 0v682h272v-682h-272zM68 34h204v614h-204v-614z" />
    <glyph glyph-name=".null" horiz-adv-x="0" 
 />
    <glyph glyph-name="nonmarkingreturn" horiz-adv-x="341" 
 />
    <glyph glyph-name="x" unicode="x" horiz-adv-x="1001" 
d="M281 543q-27 -1 -53 -1h-83q-18 0 -36.5 -6t-32.5 -18.5t-23 -32t-9 -45.5v-76h912v41q0 16 -0.5 30t-0.5 18q0 13 -5 29t-17 29.5t-31.5 22.5t-49.5 9h-133v-97h-438v97zM955 310v-52q0 -23 0.5 -52t0.5 -58t-10.5 -47.5t-26 -30t-33 -16t-31.5 -4.5q-14 -1 -29.5 -0.5
t-29.5 0.5h-32l-45 128h-439l-44 -128h-29h-34q-20 0 -45 1q-25 0 -41 9.5t-25.5 23t-13.5 29.5t-4 30v167h911zM163 247q-12 0 -21 -8.5t-9 -21.5t9 -21.5t21 -8.5q13 0 22 8.5t9 21.5t-9 21.5t-22 8.5zM316 123q-8 -26 -14 -48q-5 -19 -10.5 -37t-7.5 -25t-3 -15t1 -14.5
t9.5 -10.5t21.5 -4h37h67h81h80h64h36q23 0 34 12t2 38q-5 13 -9.5 30.5t-9.5 34.5q-5 19 -11 39h-368zM336 498v228q0 11 2.5 23t10 21.5t20.5 15.5t34 6h188q31 0 51.5 -14.5t20.5 -52.5v-227h-327z" />
    <glyph glyph-name="uniE600" unicode="&#xe600;" 
d="M257 639q-48 -47 -66.5 -109.5t-6.5 -125.5q25 113 110 198t198 110q-42 7 -83.5 2t-81 -24t-70.5 -51zM915 122l-103 103q-32 32 -78 29q73 104 62 234t-104 223q-69 69 -161 93.5t-184.5 0t-161.5 -93.5t-93.5 -161.5t0 -184.5t93.5 -161q93 -93 223 -104t234 62
q-3 -46 29 -78l103 -103q29 -29 70.5 -29t70.5 29q39 39 26 94q-7 28 -26 47zM650.5 245.5q-87.5 -87.5 -211.5 -87.5t-212 87.5t-88 211.5t88 212q43 43 99 65.5t112.5 22.5t112.5 -22.5t99 -65.5q88 -87 88 -211.5t-87.5 -212z" />
    <glyph glyph-name="uniE601" unicode="&#xe601;" horiz-adv-x="1026" 
d="M873 833h-721q-37 0 -63.5 -26.5t-26.5 -63.5v-719q0 -37 26.5 -63.5t63.5 -26.5h721q25 0 45.5 12t32.5 32.5t12 45.5v719q0 37 -26.5 63.5t-63.5 26.5zM600 337v-178h-179v178h-179l268 358l269 -358h-179z" />
    <glyph glyph-name="uniE602" unicode="&#xe602;" 
d="M663 249q78 44 132 128.5t70 191.5q9 -10 15.5 -21.5t10 -25t3.5 -27.5v-3v-385v-2q0 -37 -23 -67zM514 261q-119 0 -207 99.5t-101 245.5h617q-7 -72 -33.5 -135.5t-67.5 -109.5t-95 -73t-113 -27zM368 254l-214 -218q-11 15 -17.5 32.5t-6.5 36.5v2v385v3q0 53 42 87
q9 -72 36 -136t68 -113t92 -79zM520 211q10 0 20 0.5t20 2t20 3.5t19.5 5t19 6.5t18.5 7.5l215 -218q-15 -11 -32 -17.5t-35 -6.5h-546q-36 0 -65 23l219 223q61 -29 127 -29z" />
    <glyph glyph-name="uniE603" unicode="&#xe603;" 
d="M757 330q-1 4 -4.5 10.5t-5.5 10t-8 11.5t-13 16t-20 20.5t-29 28.5q0 53 -11.5 106.5t-30 95.5t-37.5 76t-40.5 61t-30.5 38t-16 18v0h-1q-5 -6 -12 -13.5t-24 -29.5t-32.5 -45.5t-34 -59t-31.5 -72t-21.5 -83.5t-8.5 -93q-16 -15 -29 -28t-20 -21t-12.5 -16t-8 -12
t-5.5 -10.5t-5 -9.5q-6 -10 -9.5 -33t-3.5 -50t1.5 -54.5t6 -49.5t9.5 -32q21 -35 64 0l7 7q5 5 10.5 11.5t12.5 13.5l12 14q7 7 13 12.5t10.5 8.5t7.5 2q15 3 32 -13q13 -12 33.5 -21.5t39.5 -11.5v0h1q19 2 39.5 11.5t33.5 21.5q7 7 15 10.5t12 3.5l4 -1q6 2 21 -13
t32 -33.5t20 -21.5q43 -35 64 0q15 26 17 108.5t-14 110.5v0zM512 418q-22 0 -40 10.5t-28.5 28.5t-10.5 39q0 33 23 56t55 23q22 0 40 -10.5t28.5 -28.5t10.5 -39q0 -13 -4 -25t-11 -22t-17 -17t-22 -11t-24 -4v0zM570 103q-14 -11 -29 -15.5t-29 -4.5q-10 0 -19 1.5
t-19.5 6t-19.5 11.5q-14 10 -25 9.5t-17 -9.5q-4 -5 -5 -25t2 -40t8 -27q7 -6 11 -4t13 8t16 6q20 1 39 -55q3 -9 7 -14.5t9 -6.5q10 1 16 21q18 56 39 55q7 0 16 -6t13 -8t11 4q8 11 9.5 48t-4.5 45q-15 19 -42 0v0zM570 103z" />
    <glyph glyph-name="uniE604" unicode="&#xe604;" 
d="M406 248l23 -24l5 -5h1l5 -5q2 -2 5 -3.5t6 -1.5t6 1.5t5 3.5l249 248q11 12 0 23l-34 34q-12 11 -23 0l-203 -203l-97 97q-11 11 -22 0l-34 -34q-12 -11 0 -22zM953 385q0 71 -22 138t-62.5 121t-94.5 95t-121.5 63t-138.5 22q-89 0 -170.5 -35t-140.5 -93.5t-93.5 -140
t-34.5 -171t34.5 -171t93.5 -140t140.5 -93.5t170.5 -35t170.5 35t140.5 93.5t93.5 140t34.5 171.5zM176 384.5q0 91.5 45 169.5t123 123.5t170 45.5q46 0 89.5 -12.5t81 -34t68.5 -53t53 -68.5t34 -80.5t12 -89.5q0 -92 -45.5 -170t-123 -123t-169.5 -45t-170 45t-123 123
t-45 169.5z" />
    <glyph glyph-name="uniE605" unicode="&#xe605;" 
d="M942 288q0 -143 -84 -258t-216 -159q-16 -2 -23 4.5t-7 17.5v120q0 56 -30 81q33 4 59 10.5t53.5 22t46.5 38t30.5 60t11.5 86.5q0 69 -45 118q21 52 -5 116q-16 5 -46 -6.5t-53 -24.5l-21 -14q-53 15 -110 15t-110 -15q-9 6 -24 15.5t-47.5 22t-49.5 7.5
q-25 -64 -4 -116q-45 -49 -45 -118q0 -49 11.5 -86t30 -60t46 -38.5t53.5 -22t59 -10.5q-23 -20 -28 -59q-12 -5 -25.5 -8t-32.5 -3t-37.5 12.5t-31.5 35.5q-11 18 -28 29.5t-28 13.5l-12 2q-12 0 -16.5 -2.5t-3 -6.5t5 -8t7.5 -7l4 -3q13 -5 25 -21t18 -30l6 -13
q7 -21 25 -34.5t38.5 -17.5t39.5 -4t32 2l13 2v-50v-31q0 -11 -7 -17.5t-23 -4.5q-132 44 -216 159t-84 258q0 120 59 220.5t160 159.5t220 59t220 -59t160 -160t59 -220z" />
    <glyph glyph-name="uniE606" unicode="&#xe606;" 
d="M786 809h-535q-7 0 -14 -2.5t-12.5 -6.5t-10 -9.5t-6.5 -12.5t-2 -15v-55v-22v-715v-51v-83q0 -19 13 -32.5t32 -13.5h78h168h44h167h78q19 0 32.5 13.5t13.5 32.5v107v27v715v45v32q0 13 -6 23.5t-16.5 16.5t-23.5 6zM580 754q2 2 4 3l6 2q2 1 5 1t5 -1l6 -2q2 -1 4 -3
q3 -4 4.5 -7.5t1.5 -8t-1.5 -8t-4.5 -6.5q-6 -7 -15 -7t-15 6q-6 7 -6 16q0 8 6 15zM457 760h59q8 0 14.5 -6.5t6.5 -15t-6.5 -15t-14.5 -6.5h-59q-6 0 -11 3t-8 8t-3 10q0 17 17 21q3 1 5 1zM519 -166q-14 0 -25 6.5t-17.5 18t-6.5 24.5q0 21 14 35.5t34.5 14.5t35 -14.5
t14.5 -35t-14.5 -35t-34.5 -14.5zM787 -29h-536v698h536v-698z" />
    <glyph glyph-name="uniE607" unicode="&#xe607;" 
d="M512 794q-83 0 -159 -32.5t-131 -87.5t-87.5 -131t-32.5 -159q0 -111 55 -205.5t149.5 -149.5t205.5 -55t205.5 55t149.5 149.5t55 205.5t-55 205.5t-149.5 149.5t-205.5 55zM512 38q-94 0 -173.5 46.5t-126 126t-46.5 173.5t46.5 173.5t126 126t173.5 46.5t173.5 -46.5
t126 -126t46.5 -173.5t-46.5 -173.5t-126 -126t-173.5 -46.5zM666 230h-308v52h-51v-103h410v103h-51v-52zM614 384h-76v205h-52v-205h-76l102 -128z" />
    <glyph glyph-name="uniE608" unicode="&#xe608;" 
d="M858 845h-692q-47 0 -81 -34t-34 -81v-692q0 -18 6 -35.5t16.5 -32t25 -25t32 -16.5t35.5 -6h692q47 0 81 34t34 81v692q0 47 -34 81t-81 34zM126 770q17 17 40 17h692q23 0 40 -17t17 -40v-378l-79 79q-11 11 -24 18.5t-27.5 11.5t-29.5 4q-48 0 -82 -34l-216 -217
l-93 93q-34 34 -81.5 34t-81.5 -34l-92 -92v515q0 23 17 40zM235 583.5q0 -44.5 31.5 -76t76 -31.5t76 31.5t31.5 76t-31.5 76t-76 31.5t-76 -31.5t-31.5 -76z" />
    <glyph glyph-name="uniE609" unicode="&#xe609;" horiz-adv-x="1171" 
d="M49 666h1073q9 0 17.5 -3t13 -7t8.5 -9.5t5.5 -10.5t2.5 -9.5t1 -6.5v-3v-780q0 -10 -2.5 -18t-7 -13t-9.5 -9t-10.5 -5.5t-9.5 -2.5t-7 -1h-2v49v682h-1073v-682h1073v-49h-1073l-21 4q-27 13 -28 45v780q0 2 0.5 5.5t3 11.5t7 14.5t14.5 12t24 5.5zM683 617h-195v-49
h195v49zM946 262q0 15 -6.5 29t-17 24t-25 16t-30.5 6q-32 0 -55 -22t-23 -53t23 -53t55.5 -22t55.5 22t23 53zM982 173h-21l-85 -168l21 147l-31 35l-32 -35l21 -148l-84 169h-22q-29 0 -35.5 -13.5t-6.5 -49.5v-127h317v127q0 19 -0.5 27.5t-4.5 18.5t-13 13.5t-24 3.5z
M195 373h439v-49h-439v49zM195 227h341v-49h-341v49zM195 81h244v-49h-244v49zM683 666h-195v97q0 6 1 14t13.5 21.5t33.5 13.5h98q22 0 34 -12t13 -25l2 -12v-97zM585 771q-11 0 -20.5 -5.5t-14.5 -14.5t-5 -20q0 -7 2 -13t5.5 -11t8.5 -9t11.5 -6t12.5 -2q17 0 29 12
t12 29t-12 28.5t-29 11.5zM585 771z" />
    <glyph glyph-name="uniE60A" unicode="&#xe60a;" horiz-adv-x="1025" 
d="M927 75q5 -22 -2.5 -41.5t-24 -34t-39.5 -23t-50 -8.5q-170 -1 -305 -1h-306q-32 0 -56.5 11.5t-39.5 28.5t-20 37.5t1 36.5q6 13 11 26q5 12 11 26.5t13 30.5l35 83h102l-39 -114h580l-39 114h98q19 -46 35 -83q6 -16 12.5 -31.5t11 -27.5t8 -20.5t3.5 -9.5zM474 241
q-17 20 -39 49.5t-45.5 61t-46.5 62.5t-41 53q-21 24 -16.5 40t31.5 16q14 -1 38.5 0.5t40.5 1.5q18 0 22.5 10.5t4.5 28.5q0 20 -0.5 44t-0.5 49t-0.5 49.5t-0.5 44.5q0 9 1.5 19t6.5 18t14 13.5t26 5.5q19 0 34.5 0.5t36.5 0.5q29 0 39.5 -14t11.5 -44v-35
q0 -21 0.5 -44.5t0.5 -46.5v-43q0 -26 5.5 -41.5t24.5 -14.5q13 0 32.5 -1t33.5 -1q25 0 31.5 -13t-9.5 -34q-17 -22 -39.5 -52.5t-46.5 -63t-47 -64t-41 -53.5q-16 -21 -31 -21.5t-31 19.5z" />
    <glyph glyph-name="uniE60B" unicode="&#xe60b;" 
d="M956 88l-281 286q-5 5 -11.5 7.5t-13 2.5t-12.5 -2.5t-11 -7.5l-21 -19l-48 49l73 77q7 7 8 6q21 -9 39.5 -13.5t36.5 -5t34.5 3t33 12t32.5 20.5t33 29q43 43 54 102.5t-13 108.5l-116 -113q-9 -9 -21.5 -9t-21.5 9l-49 49q-3 2 -4.5 5t-2.5 6t-1.5 6.5t0 7t1.5 6.5
t2.5 6t4.5 5l111 110q-47 16 -100 2.5t-93 -53.5q-32 -30 -48.5 -58t-18 -54.5t4 -48t18.5 -50.5q1 -3 -78 -87h-5l-254 256v1q1 2 1.5 5.5t1 7.5t0.5 9.5t-1 10t-3.5 9.5t-6.5 9l-41 39l-78 -77l41 -40q1 0 3.5 -1.5t9 -4t13 -4t14.5 -1.5t14 3l248 -251l5 -8l-325 -296
l-42 -42q-28 -28 -28 -67.5t28 -67t67 -27.5t67 28l42 42q22 28 56 71.5t107.5 136.5t110.5 138l45 -46l-25 -28q-10 -9 -10 -23.5t10 -23.5l280 -282q10 -10 24 -10t23 10l87 81q9 10 9 24t-9 24zM182 44q-6 -5 -13.5 -7.5t-15.5 0t-13 7.5q-9 9 -9 21.5t8.5 21t21 8.5
t21 -8.5t8.5 -21t-8 -21.5zM859 1q-10 -10 -20 0l-250 263q-10 10 0 20t20 0l251 -263q4 -4 4 -10t-5 -10zM911 53q-10 -10 -20 0l-250 263q-10 10 0 20t20 0l250 -263q11 -10 0 -20z" />
    <glyph glyph-name="uniE60C" unicode="&#xe60c;" 
d="M576 570q5 19 15 19q7 -1 9 -11l4 -21q4 -17 9 -6q3 8 4 21q-1 21 -10 29q-9 7 -18.5 7t-16.5 -7q-7 -8 -11 -20t-2 -21q4 -16 12 -1q3 4 5 11zM962 188q-7 30 -27.5 72t-39.5 68q-13 18 -15 23t1 22q4 21 -0.5 44t-16.5 42t-17 55q-7 66 -39 124t-83.5 100t-116.5 63
q-18 6 -48 9t-60.5 2t-50.5 -6q-22 -4 -42.5 -11.5t-39 -17.5t-36 -22t-33 -25.5t-29 -29.5t-24.5 -33.5t-20.5 -37t-16.5 -39.5t-11.5 -42t-5.5 -44q-3 -34 -6 -34t-6.5 -4.5t-6.5 -10.5t-5 -12.5t-2 -10.5q0 -5 -2 -11.5t-5 -10.5q-6 -10 -5 -39l2 -30l-26 -34
q-47 -62 -64.5 -125.5t-3.5 -118.5q6 -24 12 -30t18 -1q10 4 29.5 24.5t25.5 32.5q5 12 9 8q2 -1 2 -4q0 -7 14.5 -36t28.5 -48l4 -6l4 -6q2 -3 3.5 -5t2.5 -4t2 -3.5t1 -2.5q0 -2 -17 -10q-48 -25 -49 -85q-1 -20 8 -32q3 -5 7 -10.5t5 -8.5q8 -13 19.5 -21t30 -14
t46.5 -10q16 -2 29 -2.5t30.5 1t38 4.5t51.5 9q32 7 54 9.5t45 2.5t45.5 -3t55.5 -9q60 -12 104.5 -13.5t76 8t50.5 29.5q42 45 27 81q-6 14 -3 15q1 2 -5 15q-13 24 -48 39l-15 6l22 32q8 13 18 31t15 30l11 30l15 -23q8 -12 17.5 -23.5t18 -19t14.5 -9.5q13 -4 22.5 19.5
t12.5 65.5q1 22 -0.5 36.5t-6.5 35.5zM553 630q11 24 32.5 32.5t39.5 -3.5q5 -3 9 -7t7.5 -9.5t6.5 -11.5t5 -13t3.5 -14.5t2.5 -14.5q3 -46 -15.5 -75.5t-45.5 -27.5t-46 38q-5 10 -7.5 24t-2.5 28.5t3 29t8 24.5zM397 652q10 9 27.5 10t28.5 -7q31 -20 34 -73
q2 -27 -3.5 -46t-18.5 -33q-24 -27 -52 -15q-45 19 -45 88q0 52 29 76zM447 464q33 6 91 4t92 -10q19 -5 39.5 -13t36 -16t25.5 -16t10 -13q0 -6 -20.5 -19t-37.5 -18q-9 -3 -9 0t13 20q14 19 4 14q-6 -2 -20 -13q-23 -17 -47 -28.5t-48.5 -17.5t-49.5 -6t-49.5 5t-48.5 16
t-46 28q-22 16 -23 14q-3 -2 7 -17q8 -15 6 -17t-21.5 6.5t-30.5 16.5q-5 3 -8.5 8t-3.5 9q0 12 45 32.5t94 30.5zM600 294q-5 -1 -15 -2t-20 -1h-22l24 3q24 3 35 3h6q2 0 -1 -1zM541 289q0 -1 -4.5 -2t-12.5 -1t-18 0.5t-22 1.5l-24 2q-12 1 -23.5 2.5t-20.5 3.5
q-17 3 -34 7.5t-28.5 8.5t-14.5 7q-8 7 13 0l14 -4q25 -9 65 -15t72 -6q38 0 38 -5zM305 -168q-34 0 -61.5 6t-46 16.5t-25.5 24.5q-3 8 -2 13t8 18q7 14 7.5 17.5t-4.5 4.5q-14 5 10 23q1 1 3 2q28 19 41 3q6 -7 20 -16q15 -10 31 -24q12 -12 46 -40q29 -24 29 -33t-10 -12
t-46 -3zM826 -39q24 -12 24 -25q0 -6 -10 -6q-6 0 -1 -6l2 -2q3 -3 6 -11t4 -17q1 -8 0 -13.5t-3.5 -9t-9.5 -10.5q-32 -27 -112 -26q-51 0 -57 6q-12 12 30 36q49 28 56 42q4 8 17 12q13 3 24 20q10 13 14.5 14.5t15.5 -4.5zM813 96q-25 -95 -102 -156t-178 -66
q-71 -3 -130 19t-107 70q-74 74 -84 174q-1 12 -0.5 27t2 30t4.5 28.5t7 21.5l5 14l17 -11q6 -3 14 -8t9 -6q4 -2 -3 -56q-8 -49 -6 -72.5t15 -37.5q24 -27 77 -28q18 0 28 1.5t17.5 5t10.5 14.5t4 25t1 40v52l34 -4q93 -10 178.5 8t151.5 62q9 6 16.5 9.5t8.5 1.5
q7 -7 11.5 -37t4 -65t-5.5 -56zM435 541q10 -6 16 -5.5t14 9.5q11 10 11 29q0 23 -15 34t-28 -3q-12 -13 -11 -34t13 -30zM457 591q4 -1 4 -11q0 -6 -3 -9t-7 -2.5t-6 5.5q-1 4 0.5 8.5t4.5 7t7 1.5z" />
    <glyph glyph-name="uniE613" unicode="&#xe613;" horiz-adv-x="1026" 
d="M256 219l-193 193l193 193l192 -193zM963 577v257h-386v-100l-128 -1v-642v-57h128v-100h386v257h-386v-100h-72v586h72v-100h386z" />
    <glyph glyph-name="uniE618" unicode="&#xe618;" 
d="M764 171q-88 32 -121 65t-33 91q0 15 6 25.5t14 17.5t17 25.5t14 46.5q2 10 6.5 14.5t10.5 6.5t11.5 6.5t10 18t5.5 35.5q0 14 -4 24t-8 13l-5 3q1 5 2.5 14t5 31t4.5 38q2 16 -1.5 35t-16 42t-32.5 41.5t-56 31.5t-82 13t-82 -13t-56 -31.5t-32.5 -41.5t-16 -42
t-1.5 -35l12 -83q-17 -8 -17 -40q1 -22 5.5 -35.5t10 -18t11 -6.5t10.5 -6.5t7 -14.5q4 -23 11 -39.5t13.5 -24.5t12.5 -14.5t10 -15.5t4 -21q0 -58 -33 -91t-121 -65q-90 -32 -142 -63t-52 -53v-100h892v100q0 22 -52 52.5t-142 63.5v0z" />
    <glyph glyph-name="uniE61C" unicode="&#xe61c;" 
d="M554 76v-43h184v-89h-184v-124h-90v124h-185v89h185v44q-116 17 -194 107t-78 210q0 88 43 162t116.5 117t160.5 43t160.5 -43t116.5 -117t43 -162q0 -132 -93 -226q-78 -78 -185 -92zM512 627q-96 0 -164 -68t-68 -165q0 -63 31 -116.5t84.5 -85t116.5 -31.5t116.5 31.5
t84.5 85t31 116.5q0 97 -68 165t-164 68z" />
    <glyph glyph-name="uniE61D" unicode="&#xe61d;" 
d="M859 360q-9 -215 -216 -408q-68 -63 -126 -99q-6 4 -16 10.5t-40.5 29.5t-59 48t-64.5 65t-65 81t-54 94.5t-36 107.5q-17 54 -17 109q0 94 46.5 174.5t126.5 127t175 46.5q70 0 134.5 -27.5t111.5 -74t74.5 -111t27.5 -135.5q0 -9 -0.5 -18.5t-1.5 -19.5zM513 620
q-53 0 -98 -26.5t-71 -71t-26 -97.5t26 -98t71 -71t98 -26q80 0 137 57t57 138t-57 138t-137 57z" />
    <glyph glyph-name="uniE61E" unicode="&#xe61e;" 
d="M479 673q-15 0 -23.5 -5t-13.5 -5q-2 -1 -4 -1h-2h-2q-1 0 -2.5 -0.5t-5 -1t-9.5 -1.5t-15 -2q-28 -6 -42.5 -33t-17.5 -51q-4 -41 -1 -107q1 -6 0.5 -9.5t-2.5 -5.5t-3.5 -2.5t-3.5 -1.5h-1q-8 1 -12 -7t-4.5 -19.5t-0.5 -23t1 -19.5l1 -9q1 -3 2 -9t1.5 -8t2.5 -6.5
t5.5 -7t10 -6.5t15.5 -7q8 -23 24.5 -42.5t28.5 -27.5l12 -7q2 -33 3 -57q-1 1 -1 -5t-4 -16t-13.5 -20.5t-32 -20.5t-55.5 -15q-29 -4 -52.5 -10.5t-37.5 -12t-28 -14.5t-19.5 -13.5t-15 -14.5t-11.5 -12q-21 -19 -21 -119h764q-1 11 -2.5 28t-8.5 49.5t-17 41.5
q0 1 -11 12t-15.5 14.5t-19.5 13t-29 15t-37.5 12t-52.5 10.5q-24 4 -42.5 10t-28.5 13t-17 15t-8.5 15.5t-2 13t-0.5 9.5l1 5l4 49q4 3 11 9.5t22.5 28t23.5 44.5q5 3 14.5 9t11.5 8l8 6q5 4 6.5 8t3.5 10v3q0 2 0.5 7t0.5 11v12q0 7 -1 13t-2.5 12t-4 10.5t-6 7t-8.5 2.5
h-4q-2 0 -4.5 4t-0.5 12q3 17 3 47.5t-2 48.5q-1 3 -1 12.5t-0.5 17t-3 18t-6 17.5t-11 13.5t-17.5 7.5q-16 4 -29.5 1.5t-17.5 -1.5q-6 0 -24.5 19.5t-33.5 19.5zM479 673z" />
    <glyph glyph-name="uniE61F" unicode="&#xe61f;" 
d="M999 617q0 -1 -0.5 -3t-0.5 -3t-0.5 -2.5t-0.5 -3.5q-15 -54 -69 -67q-27 -7 -75 -18q-6 -1 -6 -8v-122v-122q1 -57 -45 -93q-32 -26 -87 -42q-13 -4 -27.5 -7.5t-29 -6t-28.5 -4t-29 -3.5q-33 -2 -66.5 -3t-66.5 1q-102 4 -169 26q-53 17 -83 44q-40 35 -39 86v246
q0 7 -6 8q-38 8 -75 17q-19 5 -34 15.5t-24.5 26.5t-12.5 36v1v1v19q0 2 1 3q4 28 22.5 48.5t45.5 27.5q53 12 108.5 25t134 31t108.5 25q9 2 28.5 6.5t29.5 6.5h17q2 0 4 -0.5t3.5 -0.5t3 -0.5t3.5 -0.5q43 -11 180.5 -42.5t212.5 -48.5q55 -13 70 -68q0 -2 1 -6.5t1 -6.5
v-18zM786 504h-2q-2 0 -3 -1q-34 -8 -114.5 -26.5t-123.5 -28.5q-30 -7 -50 -2l-237 54q-2 1 -4.5 1.5t-4.5 1t-5 1t-5 0.5v-7q0 -20 0.5 -70.5t0 -87t-0.5 -70.5q0 -21 16 -35q3 -3 6.5 -5.5t6.5 -4.5q26 -19 68 -31q57 -18 129 -22q102 -6 187 11q18 4 33.5 8.5t32 11
t31.5 14.5q21 12 32 26q7 10 7 23v59v57v59v57v7zM511 504q1 0 3 1q4 0 6 1q33 7 75.5 17t76 17.5t75.5 17.5t76 17l90 21q20 5 25 23q3 14 -4.5 24.5t-22.5 13.5q-64 15 -194 45l-195 45q-10 3 -20 0q-55 -13 -161 -37q-51 -12 -79 -18.5t-71.5 -16.5t-78.5 -18
q-26 -6 -26 -31q0 -11 7 -19t19 -11l367 -85q3 0 5 -0.5t4.5 -1t4.5 -1t4.5 -1t4.5 -1.5h4q2 -1 5 -2zM931 -44q-6 2 -10 3q-21 6 -33 24.5t-10 41.5q5 45 25 82q4 7 8.5 13t9.5 11q8 8 17 8t17 -8q11 -12 20 -27q9 -17 15 -36t8 -39q1 -1 1 -2v-2v-15v-2l-1 -1
q-7 -37 -43 -48q-1 -1 -4.5 -1.5t-4.5 -0.5q-5 -1 -15 -1zM908 338v135q0 13 7.5 21.5t19.5 9.5q13 2 23 -6.5t11 -21.5v-4v-271q0 -16 -12.5 -25.5t-28.5 -4.5q-20 8 -20 30v137z" />
    <glyph glyph-name="uniE620" unicode="&#xe620;" 
d="M341 328h86v-85h-86v85zM341 499h86v-85h-86v85zM142 499h86v-85h-86v85zM142 670h86v-86h-86v86zM341 -13h86v-85h-86v85zM341 158h86v-86h-86v86zM142 328h86v-85h-86v85zM341 670h86v-86h-86v86zM142 158h86v-86h-86v86zM825 328h85v-85h-85v85zM142 -13h86v-85h-86
v85zM825 -13h85v-85h-85v85zM825 158h85v-86h-85v86zM626 -13h85v-85h-85v85zM971 471h-402v284v57h-53h-463h-43h-10v-1024h28h25h463h53h402h25h28v683h-10h-43zM516 -155h-463v910h463v-910zM971 -155h-402v569h402v-569zM626 158h85v-86h-85v86zM626 328h85v-85h-85v85z
" />
    <glyph glyph-name="uniE621" unicode="&#xe621;" 
d="M516 -62h-299q-52 0 -90 30q-24 19 -37.5 43t-16.5 54q-1 3 -1 5v6q0 2 -0.5 4.5t-0.5 5.5v594q0 30 10 55.5t29 46.5q12 13 26 22t29.5 14.5t32.5 7.5q8 2 20 2h596q60 0 101 -39q13 -12 22 -26t14.5 -29.5t7.5 -32.5q1 -8 1 -21v-594q0 -30 -9.5 -55.5t-28.5 -46.5
q-36 -38 -88 -44q-8 -1 -21 -1q-99 -1 -297 -1zM235 484v-11q0 -2 1 -6v-5q6 -60 48 -101q12 -11 25 -24t25.5 -25t24.5 -23.5t26 -24.5t25 -24q69 -66 103 -99q5 -2 8 1l76 73q22 21 49.5 48t55 53.5t49.5 47.5q6 6 12 13t10.5 15t8.5 16q19 44 14 95q-8 70 -73 104
q-29 16 -68 20q-37 4 -64 -9q-35 -16 -70 -52q-4 -4 -5 -4t-5 4q-31 32 -62 48q-26 14 -51 14q-20 0 -39 -3.5t-37 -10.5q-38 -16 -60 -46q-27 -35 -27 -84z" />
  </font>
</defs>
</svg>
